# xmcd
#
# Track frame offsets:
#	150
#	13580
#	29150
#	47925
#	61487
#	79810
#	94710
#	117260
#	139055
#	150720
#	162820
#	182470
#	192955
#	205115
#	216660
#
# Disc length: 3036 seconds
#
# Revision: 1
# Processed by: cddbd v1.5.2PL0 Copyright (c) Steve Scherf et al.
# Submitted via: EasyCDDAExtractor 16.1.0.1
#
DISCID=d40bda0f
DTITLE=Pekka Myllykoski - Puolen kilon punttisalilla
DYEAR=1900
DGENRE=Country
TTITLE0=Pekka Myllykoski ja Maltaan Haukat - Tästähän lähretähän
TTITLE1=Pekka Myllykoski ja Maltaan Haukat - Tuuli puita taivuttaa
TTITLE2=Pekka Myllykoski ja Maltaan Haukat - Joskus kun sataa
TTITLE3=Pekka Myllykoski ja Maltaan Haukat - Hidas palaminen
TTITLE4=Pekka Myllykoski ja Maltaan Haukat - Kun mä kömmin vinniin
TTITLE5=Pekka Myllykoski ja Maltaan Haukat - Mihin rahat män?
TTITLE6=Pekka Myllykoski ja Maltaan Haukat - Koti maantiellä
TTITLE7=Pekka Myllykoski ja Maltaan Haukat - Kun häntä rakastin
TTITLE8=Pekka Myllykoski ja Maltaan Haukat - Kosmologinen vakio
TTITLE9=Pekka Myllykoski ja Maltaan Haukat - Vakavasti ottaen
TTITLE10=Pekka Myllykoski ja Maltaan Haukat - Tuijottava humala
TTITLE11=Toilet Doors - Paskahuussin ovet
TTITLE12=Toilet Doors - Vuodesta vuoteen
TTITLE13=Toilet Doors - Kissalaulu
TTITLE14=Toilet Doors - Myöhäistä katua
EXTD=
EXTT0=
EXTT1=
EXTT2=
EXTT3=
EXTT4=
EXTT5=
EXTT6=
EXTT7=
EXTT8=
EXTT9=
EXTT10=
EXTT11=
EXTT12=
EXTT13=
EXTT14=
PLAYORDER=
